PathFileType	4	(X/Y/Z)	D:/83_35.trc
DataRate	CameraRate	NumFrames	NumMarkers	Units	OrigDataRate	OrigDataStartFrame	OrigNumFrames
120.00	120.00	5	41	mm	120.00	1016	1048
Frame#	Time	LFWT			RFWT			LBWT			RBWT			LTHI			LKNE			LSHN			LANK			LHEE			LMT5			LTOE			RTHI			RKNE			RSHN			RANK			RHEE			RMT5			RTOE			CLAV			STRN			C7			T10			RBAC			LFHD			RFHD			LBHD			RBHD			LSHO			LUPA			LELB			LFRM			LWRA			LWRB			LFIN			RSHO			RUPA			RELB			RFRM			RWRA			RWRB			RFIN
		X1	Y1	Z1	X2	Y2	Z2	X3	Y3	Z3	X4	Y4	Z4	X5	Y5	Z5	X6	Y6	Z6	X7	Y7	Z7	X8	Y8	Z8	X9	Y9	Z9	X10	Y10	Z10	X11	Y11	Z11	X12	Y12	Z12	X13	Y13	Z13	X14	Y14	Z14	X15	Y15	Z15	X16	Y16	Z16	X17	Y17	Z17	X18	Y18	Z18	X19	Y19	Z19	X20	Y20	Z20	X21	Y21	Z21	X22	Y22	Z22	X23	Y23	Z23	X24	Y24	Z24	X25	Y25	Z25	X26	Y26	Z26	X27	Y27	Z27	X28	Y28	Z28	X29	Y29	Z29	X30	Y30	Z30	X31	Y31	Z31	X32	Y32	Z32	X33	Y33	Z33	X34	Y34	Z34	X35	Y35	Z35	X36	Y36	Z36	X37	Y37	Z37	X38	Y38	Z38	X39	Y39	Z39	X40	Y40	Z40	X41	Y41	Z41

918	7.642	-1204.66321	386.63724	1373.04138	-1214.28210	651.32971	1371.90295	-1042.56396	439.72693	1452.11060	-1050.04846	580.23132	1456.70630	-1116.69482	357.95810	1083.30005	-1103.32996	392.08676	932.68353	-1058.56702	392.04236	699.83923	-1024.98169	426.88470	572.08014	-966.82141	473.14951	561.00275	-1120.25452	402.71375	525.19897	-1164.11230	488.78928	545.91302	-1132.09460	691.45392	1164.62659	-1112.85889	658.17175	939.25549	-1078.77441	684.11267	830.44928	-1043.17444	625.94653	557.16534	-972.66925	584.93500	518.82483	-1147.78503	648.53662	528.54968	-1180.56348	568.35925	543.87213	-1205.29114	487.12564	1808.51868	-1224.12573	491.78143	1630.70630	-1075.59351	487.99753	1886.87769	-1004.61523	502.41776	1672.59766	-1014.26184	576.18256	1763.66101	-1279.87744	417.70111	2062.01904	-1256.56323	574.46173	2048.10059	-1134.96313	425.06393	2006.40405	-1118.76086	532.26678	2006.83374	-1110.88757	345.17517	1873.91113	-1069.46765	266.72852	1656.68457	-1049.36975	263.60474	1559.31506	-1049.17944	250.44159	1392.01196	-1173.97131	265.95139	1295.35327	-1042.92737	206.17346	1287.73547	-1128.33203	225.65224	1228.92065	-1123.70313	639.43512	1871.67273	-1101.18799	716.88208	1760.09375	-1051.87439	730.74774	1565.97144	-1048.74646	726.56183	1488.99304	-1240.63977	765.10638	1333.16699	-1104.22876	800.31848	1294.80420	-1143.75073	793.53833	1263.69092
919	7.650	-1205.10596	386.65070	1372.82849	-1214.64978	651.50848	1371.86462	-1042.68774	439.64355	1452.54858	-1050.17773	580.33514	1456.77454	-1116.91943	358.01340	1083.20813	-1103.51746	392.04468	932.65796	-1058.84338	392.00198	699.75732	-1025.08740	426.90335	572.11896	-967.44049	473.06021	560.73114	-1120.27417	402.79620	525.19446	-1163.95349	488.75299	545.83868	-1133.07361	691.38953	1164.93396	-1112.92273	658.12396	939.36719	-1078.86340	684.10205	830.47308	-1043.00903	625.83453	557.03607	-972.66925	584.93500	518.82483	-1147.76038	648.49780	528.46875	-1180.75134	568.39056	543.90790	-1205.67029	487.03571	1808.57178	-1225.05981	491.57019	1631.03577	-1074.82629	487.67590	1886.69763	-1007.04401	502.92496	1672.48291	-1015.73676	576.49719	1763.32532	-1279.18079	417.39368	2062.93213	-1256.87512	574.53088	2048.48462	-1134.17700	424.86444	2006.82764	-1118.73999	532.45172	2006.85107	-1110.94470	345.27118	1873.91968	-1069.83154	266.79276	1656.55713	-1050.50781	263.81482	1559.07202	-1050.63513	250.89857	1391.31409	-1176.14270	266.71884	1295.75854	-1045.63477	206.55405	1287.36340	-1130.95618	226.10231	1229.15283	-1124.32068	639.44092	1871.62109	-1102.74219	717.53479	1760.16199	-1053.23267	730.92456	1565.48914	-1050.55383	726.57318	1489.06555	-1243.01184	765.13849	1333.36108	-1106.85815	800.63843	1294.97168	-1145.51440	793.62787	1263.81396
920	7.658	-1205.32068	386.76431	1372.64148	-1214.92859	651.67847	1371.74744	-1042.83630	439.57797	1452.92798	-1050.00110	580.44647	1456.30334	-1117.12415	358.05994	1083.14063	-1103.65613	392.13229	932.66138	-1059.02771	392.02444	699.80731	-1025.12891	426.91571	572.10931	-967.78711	473.19272	560.76282	-1120.31335	402.79144	525.17786	-1163.79565	488.73376	545.81885	-1133.53235	691.51538	1165.01367	-1113.17883	658.06628	939.25867	-1079.20776	684.16516	830.48096	-1043.10315	625.88416	557.05438	-972.66925	584.93500	518.82483	-1147.72693	648.46399	528.41736	-1180.72327	568.47534	543.80450	-1205.87439	486.81265	1808.48438	-1226.01550	491.38165	1631.31128	-1076.05896	488.24384	1885.94641	-1006.92529	503.05292	1672.29871	-1016.53497	576.65021	1763.20093	-1278.63892	416.97971	2063.94580	-1256.97046	574.40131	2049.31152	-1133.67236	424.46512	2007.18384	-1118.73254	532.35437	2007.02271	-1111.00183	345.36719	1873.92834	-1070.54541	266.91376	1656.44543	-1051.96619	263.83826	1559.07007	-1052.14990	251.48241	1390.52649	-1178.70715	267.20377	1296.55664	-1047.85583	206.83034	1287.05713	-1133.60889	226.46954	1229.50549	-1124.95227	639.44965	1871.62402	-1104.00098	717.79596	1760.02551	-1054.70239	731.09003	1565.04187	-1052.60999	726.60547	1489.31262	-1245.32324	765.12457	1333.69031	-1109.55432	800.99500	1294.79883	-1147.32068	793.73169	1263.75098
921	7.667	-1205.87280	386.93381	1372.63147	-1215.38354	651.82111	1371.59277	-1043.59460	439.87711	1452.66003	-1050.99023	580.51746	1457.18970	-1117.45215	358.12140	1083.07214	-1103.80591	392.31226	932.66779	-1059.01953	392.08395	699.89844	-1025.15613	426.93753	572.16669	-967.55951	473.21225	560.91058	-1120.32898	402.76611	525.18951	-1163.84473	488.71014	545.89313	-1133.79907	691.61133	1164.88086	-1113.53442	658.10944	939.06488	-1079.48669	684.25458	830.41370	-1043.26331	625.89056	557.08459	-972.66925	584.93500	518.82483	-1147.80432	648.49231	528.49402	-1180.66772	568.42188	543.76099	-1205.95581	486.64127	1808.38965	-1226.60498	491.26352	1631.42102	-1076.54919	488.54761	1885.67395	-1007.50159	503.14526	1672.11597	-1017.37628	576.74646	1763.07751	-1277.87219	416.54269	2064.79956	-1256.56982	574.18341	2050.20801	-1133.04456	423.97928	2007.24829	-1118.39343	532.09546	2007.06213	-1111.11597	345.32681	1873.97668	-1071.55347	267.10965	1656.34412	-1052.82874	263.79199	1558.98608	-1053.99622	251.80344	1390.39429	-1181.14880	267.48639	1297.24402	-1050.17078	207.09766	1286.72766	-1136.54199	226.89883	1229.70886	-1125.78174	639.51489	1871.68066	-1104.98657	717.63165	1759.93237	-1056.51770	731.31000	1564.87024	-1054.36340	727.07745	1489.22827	-1247.19592	765.09784	1334.05054	-1111.72986	801.18762	1294.67102	-1149.81384	793.81732	1263.72144
922	7.675	-1206.29187	387.01199	1372.59351	-1215.83533	651.94989	1371.34412	-1044.61804	440.32733	1452.05017	-1050.27039	580.38562	1456.99207	-1117.82153	358.22372	1082.98230	-1104.19177	392.45660	932.64862	-1059.00549	392.08908	699.82556	-1025.19763	426.95694	572.30005	-967.44598	473.13177	560.86322	-1120.36768	402.82346	525.20026	-1163.92505	488.66690	545.88513	-1134.19702	691.67511	1164.84302	-1113.79919	658.14172	939.07361	-1079.50574	684.28412	830.34845	-1043.40356	625.89081	557.17303	-972.66925	584.93500	518.82483	-1147.91699	648.52625	528.53046	-1180.70447	568.32770	543.76404	-1206.22925	486.56342	1808.34668	-1227.08777	491.25363	1631.51636	-1076.75757	488.89236	1885.32373	-1008.17993	503.62256	1671.86951	-1018.77985	577.13452	1762.67126	-1277.17810	416.33197	2065.53442	-1255.94263	574.00037	2050.76025	-1132.55200	423.65140	2007.37207	-1117.94800	531.81769	2006.99170	-1111.22766	345.29758	1873.98340	-1072.22351	267.27994	1656.20654	-1053.22974	263.95834	1558.69177	-1056.26062	251.84824	1390.71094	-1183.58569	267.86945	1297.80652	-1052.89587	207.43939	1286.30225	-1139.33386	227.33966	1229.82751	-1126.57556	639.54749	1871.81030	-1106.05237	717.49969	1759.93848	-1058.25537	731.46698	1564.93872	-1056.33582	727.82111	1488.77393	-1249.13184	764.99194	1334.42712	-1113.52417	801.33044	1294.76025	-1152.42517	793.88947	1263.81128
